<svg width="17" height="16" viewBox="0 0 17 16" fill="none" xmlns="http://www.w3.org/2000/svg">
<path d="M12.2106 2.0921C9.42117 -0.697366 4.88111 -0.697366 2.09164 2.0921C-0.697215 4.88217 -0.697215 9.42162 2.09164 12.2117C4.57574 14.6952 8.44458 14.9612 11.2322 13.022C11.2909 13.2995 11.4251 13.5644 11.641 13.7803L14.1795 15.5569C14.7715 16.1477 15.7282 16.1477 16.3171 15.5569C16.9085 14.9655 16.9085 14.0089 16.3171 13.4193L13.7786 11.6415C13.5639 11.4274 13.2985 11.2926 13.0209 11.2339C14.9614 8.44564 14.6953 4.5774 12.2106 2.0921ZM10.9281 10.9291C8.8455 13.0117 5.45617 13.0117 3.3742 10.9291C1.29284 8.84655 1.29284 5.45784 3.3742 3.37526C5.45617 1.29329 8.8455 1.29329 10.9281 3.37526C13.0106 5.45784 13.0106 8.84655 10.9281 10.9291Z" fill="#868585"/>
</svg>
